HIERARCHY
ROOT SpineBase
{
  OFFSET 0.000000 0.000000 0.000000
  CHANNELS 6 Xposition Yposition Zposition Zrotation Xrotation Yrotation
  JOINT SpineMid
  {
    OFFSET -0.000000 26.299030 0.000000
    CHANNELS 3 Zrotation Xrotation Yrotation
    JOINT SpineShoulder
    {
      OFFSET 0.122951 19.715797 -0.589093
      CHANNELS 3 Zrotation Xrotation Yrotation
      JOINT Neck
      {
        OFFSET 0.028759 6.589845 -0.465899
        CHANNELS 3 Zrotation Xrotation Yrotation
        JOINT Head
        {
          OFFSET 3.239963 12.257457 1.489047
          CHANNELS 3 Zrotation Xrotation Yrotation
          End Site
          {
            OFFSET 0 0 0
          }
        }
      }
      JOINT ShoulderLeft
      {
        OFFSET -14.175885 -2.738225 -7.634824
        CHANNELS 3 Zrotation Xrotation Yrotation
        JOINT ElbowLeft
        {
          OFFSET -12.087647 -20.471347 -2.396963
          CHANNELS 3 Zrotation Xrotation Yrotation
          JOINT WristLeft
          {
            OFFSET 4.045689 -8.014017 -23.196202
            CHANNELS 3 Zrotation Xrotation Yrotation
            JOINT HandLeft
            {
              OFFSET -0.303103 -2.555854 -4.461873
              CHANNELS 3 Zrotation Xrotation Yrotation
              JOINT HandTipLeft
              {
                OFFSET -0.454763 -1.195028 -4.227100
                CHANNELS 3 Zrotation Xrotation Yrotation
                End Site
                {
                  OFFSET 0 0 0
                }
              }
              JOINT ThumbLeft
              {
                OFFSET 4.192141 -6.989732 0.655616
                CHANNELS 3 Zrotation Xrotation Yrotation
                End Site
                {
                  OFFSET 0 0 0
                }
              }
            }
          }
        }
      }
      JOINT ShoulderRight
      {
        OFFSET 15.322816 -4.770632 2.902555
        CHANNELS 3 Zrotation Xrotation Yrotation
        JOINT ElbowRight
        {
          OFFSET 6.861822 -25.600913 5.296696
          CHANNELS 3 Zrotation Xrotation Yrotation
          JOINT WristRight
          {
            OFFSET 10.900605 -3.590935 -12.185330
            CHANNELS 3 Zrotation Xrotation Yrotation
            JOINT HandRight
            {
              OFFSET 1.938596 -1.701311 -2.161718
              CHANNELS 3 Zrotation Xrotation Yrotation
              JOINT HandTipRight
              {
                OFFSET 3.275760 -0.590224 -3.435960
                CHANNELS 3 Zrotation Xrotation Yrotation
                End Site
                {
                  OFFSET 0 0 0
                }
              }
              JOINT ThumbRight
              {
                OFFSET -0.297738 6.760677 -1.904632
                CHANNELS 3 Zrotation Xrotation Yrotation
                End Site
                {
                  OFFSET 0 0 0
                }
              }
            }
          }
        }
      }
    }
  }
  JOINT HipLeft
  {
    OFFSET -6.384277 1.261413 -4.995544
    CHANNELS 3 Zrotation Xrotation Yrotation
    JOINT KneeLeft
    {
      OFFSET 7.581778 -0.421121 -31.196438
      CHANNELS 3 Zrotation Xrotation Yrotation
      JOINT AnkleLeft
      {
        OFFSET 0.607635 -32.569852 -6.882661
        CHANNELS 3 Zrotation Xrotation Yrotation
        JOINT FootLeft
        {
          OFFSET 2.426660 -2.312755 -11.031627
          CHANNELS 3 Zrotation Xrotation Yrotation
          End Site
          {
            OFFSET 0 0 0
          }
        }
      }
    }
  }
  JOINT HipRight
  {
    OFFSET 6.049727 1.032550 -1.600921
    CHANNELS 3 Zrotation Xrotation Yrotation
    JOINT KneeRight
    {
      OFFSET 18.743918 -2.777665 -24.341833
      CHANNELS 3 Zrotation Xrotation Yrotation
      JOINT AnkleRight
      {
        OFFSET -1.346413 -31.854918 -4.870121
        CHANNELS 3 Zrotation Xrotation Yrotation
        JOINT FootRight
        {
          OFFSET 1.885278 -3.974808 -8.541164
          CHANNELS 3 Zrotation Xrotation Yrotation
          End Site
          {
            OFFSET 0 0 0
          }
        }
      }
    }
  }
}
MOTION
Frames: 8
Frame Time: 0.033333
20.943015 43.298828 366.432978 -3.763461 -0.547590 -12.842631 0.634539 -0.651170 12.710501 0.065304 -0.595387 -0.146874 6.754537 15.066383 -4.250486 0.000000 0.000000 0.000000 23.524102 0.444683 -1.979455 -27.861235 -27.452187 35.686940 16.876206 -5.312280 -59.710193 4.128252 -27.481382 2.087671 0.000000 0.000000 0.000000 0.000000 0.000000 0.000000 105.780698 7.560226 14.491250 2.793064 64.910505 -56.996285 29.549539 25.914722 -6.999764 -3.551890 -19.937759 5.038975 0.000000 0.000000 0.000000 0.000000 0.000000 0.000000 3.422623 -6.318562 12.633783 1.018665 3.897065 0.205717 0.472235 3.187655 1.085055 0.000000 0.000000 0.000000 -0.277378 -6.965361 8.692968 2.152021 4.555008 4.472964 1.125958 -9.244135 -3.091414 0.000000 0.000000 0.000000
21.145225 43.332951 366.136901 -3.847372 -0.614175 -12.209541 0.587345 -0.718538 12.069266 0.057224 -0.608819 -0.154230 7.455422 15.498738 -4.500733 0.000000 0.000000 0.000000 23.362190 0.365611 -1.795308 -27.462167 -26.156164 32.605788 13.102041 -7.181122 -52.795961 2.978568 -26.134268 -2.675801 0.000000 0.000000 0.000000 0.000000 0.000000 0.000000 107.800151 6.110667 15.727246 3.311416 65.867580 -60.299147 27.418145 29.768879 -5.862543 -7.198343 -23.398923 3.912460 0.000000 0.000000 0.000000 0.000000 0.000000 0.000000 3.434362 -6.371653 12.308581 1.202467 3.343096 -0.176657 0.295627 3.800115 1.182264 0.000000 0.000000 0.000000 -0.466532 -7.224320 7.750065 1.408898 4.545394 4.997947 2.434455 -9.142280 -4.404152 0.000000 0.000000 0.000000
21.271839 43.344642 365.903183 -3.924703 -0.650359 -11.907673 0.556083 -0.771843 11.760914 0.054167 -0.610746 -0.159929 7.633402 15.598814 -4.525721 0.000000 0.000000 0.000000 22.725707 0.321057 -1.588385 -26.294773 -25.570354 27.432198 9.563432 -10.606163 -46.443747 1.525403 -21.349558 -4.299816 0.000000 0.000000 0.000000 0.000000 0.000000 0.000000 109.040762 4.889482 16.759359 4.565610 65.940255 -63.676382 33.437741 22.570972 -8.517310 -10.869454 -20.272547 2.748311 0.000000 0.000000 0.000000 0.000000 0.000000 0.000000 3.477099 -6.419086 12.201576 1.352143 2.862987 -0.431874 0.157246 4.324199 1.205150 0.000000 0.000000 0.000000 -0.567735 -7.416372 7.200840 0.914677 4.502651 5.392224 3.497164 -8.262915 -5.167165 0.000000 0.000000 0.000000
21.334776 43.353160 365.726269 -3.955766 -0.717599 -11.753580 0.515190 -0.848190 11.600318 0.038686 -0.615911 -0.165196 7.334112 15.694459 -4.408331 0.000000 0.000000 0.000000 21.970286 0.489284 -1.520404 -24.897777 -24.411671 21.519341 3.885617 -20.239271 -38.985731 -1.745832 -8.943194 -9.092721 0.000000 0.000000 0.000000 0.000000 0.000000 0.000000 109.741110 3.649378 17.652276 6.038660 65.608006 -66.861569 37.300493 16.751468 -9.852941 -7.809597 -18.586110 0.962395 0.000000 0.000000 0.000000 0.000000 0.000000 0.000000 3.477954 -6.429128 12.118125 1.461875 2.577731 -0.546654 0.241289 5.826139 1.493065 0.000000 0.000000 0.000000 -0.644583 -7.479186 6.825292 0.490518 4.392120 5.735190 4.493907 -6.451992 -5.338306 0.000000 0.000000 0.000000
21.301861 43.359454 365.648693 -4.047962 -0.867188 -11.876760 0.453691 -0.936495 11.710571 0.021607 -0.606323 -0.174359 7.120303 16.037992 -4.341135 0.000000 0.000000 0.000000 21.381148 0.823176 -1.558422 -23.957940 -25.124116 19.797400 4.279600 -20.236438 -37.983737 -2.386390 -6.460359 -9.528379 0.000000 0.000000 0.000000 0.000000 0.000000 0.000000 110.261978 2.670784 18.207729 6.273991 65.472181 -68.419094 31.299933 22.345598 -8.016514 -2.690672 -26.966113 -1.490567 0.000000 0.000000 0.000000 0.000000 0.000000 0.000000 3.542981 -6.304727 12.131720 1.545964 2.628326 -0.471569 0.078018 5.528853 1.655870 0.000000 0.000000 0.000000 -0.573644 -7.324537 6.840752 0.289222 4.435317 5.895394 5.032675 -5.356579 -5.414466 0.000000 0.000000 0.000000
21.261033 43.376898 365.669244 -4.199438 -1.156010 -12.197947 0.383297 -0.988515 12.012116 0.009467 -0.580157 -0.185765 7.076993 16.678472 -4.369661 0.000000 0.000000 0.000000 20.549444 1.226452 -1.550046 -23.012718 -27.474015 20.489852 7.296354 -15.033290 -42.659825 -1.129342 -12.102331 -5.173296 0.000000 0.000000 0.000000 0.000000 0.000000 0.000000 109.998364 1.812556 18.369763 9.659171 66.698234 -70.312447 25.990084 28.059114 -5.720217 4.653678 -29.086186 0.438455 0.000000 0.000000 0.000000 0.000000 0.000000 0.000000 3.657886 -6.018688 12.363455 1.687397 2.924110 -0.438984 -0.301502 3.921951 1.559060 0.000000 0.000000 0.000000 -0.420881 -6.967393 7.222076 0.239575 4.483542 5.846081 5.727239 -3.063227 -5.415753 0.000000 0.000000 0.000000
21.225572 43.395345 365.726865 -4.345510 -1.414335 -12.700750 0.331155 -1.032689 12.496605 -0.011723 -0.571499 -0.197021 6.981530 17.095143 -4.322686 0.000000 0.000000 0.000000 19.729724 1.391888 -1.354224 -22.029949 -26.210222 20.096790 6.669052 -15.948199 -40.692356 -1.548573 -9.938921 -6.368649 0.000000 0.000000 0.000000 0.000000 0.000000 0.000000 109.865795 1.239528 18.369962 11.780348 68.997713 -70.577391 17.351399 34.751375 -1.288914 14.867574 -31.483782 4.230943 0.000000 0.000000 0.000000 0.000000 0.000000 0.000000 3.791070 -5.756806 12.809326 1.821716 3.316576 -0.434143 -0.886802 1.006095 1.241038 0.000000 0.000000 0.000000 -0.235834 -6.612795 7.871016 0.290478 4.626675 5.680931 5.579690 -6.111131 -7.320538 0.000000 0.000000 0.000000
21.224515 43.399691 365.714971 -4.471715 -1.600433 -12.888441 0.297730 -0.972622 12.672858 -0.014779 -0.537362 -0.203017 6.850656 17.173154 -4.235180 0.000000 0.000000 0.000000 18.877082 1.063111 -0.872595 -21.155574 -24.799552 19.705193 5.866719 -17.408985 -39.740642 -1.691705 -9.616295 -7.667177 0.000000 0.000000 0.000000 0.000000 0.000000 0.000000 110.022318 0.977526 18.463248 12.341277 71.895392 -69.518881 16.255496 35.215791 -0.600465 16.166472 -25.092890 8.092293 0.000000 0.000000 0.000000 0.000000 0.000000 0.000000 3.890026 -5.576121 12.995774 1.930756 3.647419 -0.475926 -1.643733 -2.952127 0.525000 0.000000 0.000000 0.000000 -0.096416 -6.334526 7.973726 0.200855 4.785636 5.776039 5.782266 -6.588852 -7.967072 0.000000 0.000000 0.000000
